<svg width="131" height="131" viewBox="0 0 131 131" fill="none" xmlns="http://www.w3.org/2000/svg">
<path fill-rule="evenodd" clip-rule="evenodd" d="M41 39C41 37.9391 41.4214 36.9217 42.1716 36.1716C42.9217 35.4214 43.9391 35 45 35H80L98 53V101C98 102.061 97.5786 103.078 96.8284 103.828C96.0783 104.579 95.0609 105 94 105H45C43.9391 105 42.9217 104.579 42.1716 103.828C41.4214 103.078 41 102.061 41 101V39Z" fill="url(#paint0_linear_203_27)"/>
<path fill-rule="evenodd" clip-rule="evenodd" d="M80 35V49C80 50.0609 80.4214 51.0783 81.1716 51.8284C81.9217 52.5786 82.9391 53 84 53H98L80 35Z" fill="url(#paint1_linear_203_27)"/>
<path fill-rule="evenodd" clip-rule="evenodd" d="M1 59C1 57.9391 1.42143 56.9217 2.17157 56.1716C2.92172 55.4214 3.93913 55 5 55H40L58 73V121C58 122.061 57.5786 123.078 56.8284 123.828C56.0783 124.579 55.0609 125 54 125H5C3.93913 125 2.92172 124.579 2.17157 123.828C1.42143 123.078 1 122.061 1 121V59Z" fill="url(#paint2_linear_203_27)"/>
<path fill-rule="evenodd" clip-rule="evenodd" d="M40 55V69C40 70.0609 40.4214 71.0783 41.1716 71.8284C41.9217 72.5786 42.9391 73 44 73H58L40 55Z" fill="url(#paint3_linear_203_27)"/>
<path d="M39.4883 113.903C42.2242 113.903 43.8712 111.948 43.8712 108.705V107.126C43.8712 103.886 42.2355 101.94 39.531 101.94C37.8615 101.94 36.543 102.72 36.1582 103.94H36.0165V97.9617H33.114V113.75H35.9715V111.97H36.1155C36.588 113.167 37.8615 113.905 39.4883 113.905V113.903ZM38.5208 111.597C37.0358 111.597 36.0165 110.431 36.0165 108.717V107.27C36.0165 105.414 36.9615 104.248 38.487 104.248C40.026 104.248 40.9058 105.414 40.9058 107.434V108.447C40.9058 110.445 40.0373 111.599 38.5208 111.599V111.597ZM25.959 113.925C27.6848 113.925 28.6612 113.124 29.1225 112.267H29.2552V113.75H31.9913V105.918C31.9913 102.961 29.8605 101.906 27.2438 101.906C24.0488 101.906 22.6875 103.445 22.5525 105.357H25.2885C25.4325 104.631 25.9928 104.115 27.1785 104.115C28.3643 104.115 29.1225 104.676 29.1225 105.85V106.894H26.2785C23.5762 106.894 22.125 108.278 22.125 110.366C22.125 112.564 23.6842 113.925 25.959 113.925V113.925ZM26.904 111.795C25.914 111.795 25.0028 111.266 25.0028 110.179C25.0028 109.29 25.608 108.64 26.8927 108.64H29.1225V109.851C29.1225 110.982 28.1235 111.795 26.904 111.795V111.795ZM46.9222 113.07C45.624 112.17 44.8973 110.622 44.8973 108.609V107.146C44.8973 103.951 46.9087 101.886 50.0835 101.886C53.1255 101.886 54.8512 103.731 54.8962 105.949H52.2255C52.1355 105.159 51.5888 104.203 50.16 104.203C48.6435 104.203 47.8087 105.366 47.8087 107.191V108.597C47.8087 109.65 48.081 110.474 48.5805 110.998L46.9222 113.068V113.07Z" fill="#08C988"/>
<path d="M53.5553 110.181C53.7286 110.32 53.8728 110.491 53.9799 110.686C54.0869 110.88 54.1546 111.093 54.179 111.314C54.2035 111.534 54.1842 111.757 54.1224 111.97C54.0605 112.183 53.9572 112.382 53.8185 112.555L44.8185 123.805C44.6701 123.99 44.4843 124.142 44.2733 124.251C44.0622 124.359 43.8307 124.422 43.5937 124.435C43.3567 124.448 43.1197 124.411 42.8981 124.326C42.6764 124.241 42.4752 124.11 42.3075 123.942L36.6825 118.317C36.5167 118.163 36.3837 117.977 36.2915 117.77C36.1993 117.563 36.1497 117.339 36.1457 117.113C36.1417 116.886 36.1834 116.661 36.2682 116.451C36.3531 116.241 36.4794 116.05 36.6397 115.89C36.7999 115.729 36.9908 115.603 37.2009 115.518C37.411 115.433 37.6361 115.392 37.8627 115.396C38.0893 115.4 38.3127 115.449 38.5197 115.541C38.7267 115.634 38.913 115.767 39.0675 115.932L43.3605 120.223L51.1815 110.445C51.32 110.271 51.4913 110.127 51.6856 110.02C51.8798 109.913 52.0933 109.845 52.3138 109.821C52.5343 109.797 52.7574 109.816 52.9704 109.878C53.1834 109.939 53.3822 110.043 53.5553 110.181V110.181Z" fill="#08C988"/>
<path d="M82.4883 93.903C85.2242 93.903 86.8712 91.9477 86.8712 88.7055V87.126C86.8712 83.886 85.2355 81.9397 82.531 81.9397C80.8615 81.9397 79.543 82.7205 79.1582 83.94H79.0165V77.9617H76.114V93.75H78.9715V91.9702H79.1155C79.588 93.1672 80.8615 93.9052 82.4883 93.9052V93.903ZM81.5208 91.5967C80.0358 91.5967 79.0165 90.4312 79.0165 88.7167V87.27C79.0165 85.4137 79.9615 84.2482 81.487 84.2482C83.026 84.2482 83.9058 85.4137 83.9058 87.4342V88.4467C83.9058 90.4447 83.0373 91.599 81.5208 91.599V91.5967ZM68.959 93.9255C70.6848 93.9255 71.6612 93.1245 72.1225 92.2672H72.2552V93.75H74.9913V85.9177C74.9913 82.9612 72.8605 81.906 70.2438 81.906C67.0488 81.906 65.6875 83.445 65.5525 85.3575H68.2885C68.4325 84.6307 68.9928 84.1155 70.1785 84.1155C71.3643 84.1155 72.1225 84.6757 72.1225 85.8502V86.8942H69.2785C66.5762 86.8942 65.125 88.278 65.125 90.366C65.125 92.5642 66.6842 93.9255 68.959 93.9255V93.9255ZM69.904 91.7947C68.914 91.7947 68.0028 91.266 68.0028 90.1792C68.0028 89.2905 68.608 88.6402 69.8927 88.6402H72.1225V89.8507C72.1225 90.9825 71.1235 91.7947 69.904 91.7947V91.7947ZM89.9222 93.0705C88.624 92.1705 87.8973 90.6225 87.8973 88.6087V87.1462C87.8973 83.9512 89.9087 81.8857 93.0835 81.8857C96.1255 81.8857 97.8512 83.7307 97.8962 85.9492H95.2255C95.1355 85.1595 94.5888 84.2032 93.16 84.2032C91.6435 84.2032 90.8087 85.3665 90.8087 87.1912V88.5975C90.8087 89.6505 91.081 90.474 91.5805 90.9982L89.9222 93.0682V93.0705Z" fill="#08C988"/>
<path d="M96.5553 90.1815C96.7286 90.3199 96.8728 90.4912 96.9799 90.6855C97.0869 90.8798 97.1546 91.0933 97.179 91.3138C97.2035 91.5342 97.1842 91.7574 97.1224 91.9704C97.0605 92.1834 96.9572 92.3821 96.8185 92.5552L87.8185 103.805C87.6701 103.99 87.4843 104.142 87.2733 104.251C87.0622 104.359 86.8307 104.422 86.5937 104.435C86.3567 104.448 86.1197 104.411 85.8981 104.326C85.6764 104.241 85.4752 104.11 85.3075 103.942L79.6825 98.3175C79.5167 98.163 79.3837 97.9767 79.2915 97.7697C79.1993 97.5627 79.1497 97.3392 79.1457 97.1127C79.1417 96.8861 79.1834 96.661 79.2682 96.4509C79.3531 96.2408 79.4794 96.0499 79.6397 95.8896C79.7999 95.7294 79.9908 95.6031 80.2009 95.5182C80.411 95.4333 80.6361 95.3916 80.8627 95.3956C81.0893 95.3996 81.3127 95.4492 81.5197 95.5415C81.7267 95.6337 81.913 95.7667 82.0675 95.9325L86.3605 100.223L94.1815 90.4447C94.32 90.2714 94.4913 90.1271 94.6856 90.0201C94.8798 89.9131 95.0933 89.8454 95.3138 89.821C95.5343 89.7965 95.7574 89.8158 95.9704 89.8776C96.1834 89.9395 96.3822 90.0427 96.5553 90.1815V90.1815Z" fill="#08C988"/>
<g filter="url(#filter0_d_203_27)">
<path d="M70.7574 46.061C52.1456 46.061 42.408 51.5885 39.3849 53.684C38.2271 54.4867 36.7251 54.4417 35.6539 53.5007C34.963 52.8935 34.5424 52.0544 34.5587 51.1323C35.1394 17.9237 54.4002 0 85.8198 0C107.678 0 124.964 11.9473 124.964 24.9449C124.964 26.6324 124.964 19.4546 114.203 19.4546C107.018 19.4546 106.529 36.1547 106.495 51.3011C106.494 52.0573 106.198 52.753 105.702 53.3074C104.62 54.5176 102.902 54.645 101.616 53.7166C98.6164 51.5513 89.1934 46.061 70.7574 46.061V46.061Z" fill="#FF473E"/>
</g>
<path d="M104.672 57C103.684 57 102.684 56.6922 101.792 56.048C99.3681 54.2985 89.9701 48.5904 70.7826 48.5904C51.4217 48.5904 41.658 54.3158 39.1268 56.0706C36.6275 57.8031 33.3468 56.9402 31.7985 54.1431C30.2505 51.3461 31.0216 47.6741 33.5208 45.9416C37.5394 43.1558 49.2153 36.6758 70.7826 36.6758C80.0163 36.6758 88.3588 37.8705 95.5781 40.2264C101.517 42.1647 105.373 44.4555 107.562 46.0357C110.033 47.8193 110.744 51.5066 109.15 54.2713C108.132 56.0373 106.42 57 104.672 57V57Z" fill="#F4F3EF"/>
<path d="M131 26.5103C131 30.9757 127.765 34.5958 123.775 34.5958C119.785 34.5958 116.551 30.9759 116.551 26.5103C116.551 22.0447 119.785 18.4248 123.775 18.4248C127.765 18.4248 131 22.0447 131 26.5103V26.5103Z" fill="#DEE2E2"/>
<defs>
<filter id="filter0_d_203_27" x="30.5582" y="0" width="98.4056" height="62.3266" filterUnits="userSpaceOnUse" color-interpolation-filters="sRGB">
<feFlood flood-opacity="0" result="BackgroundImageFix"/>
<feColorMatrix in="SourceAlpha" type="matrix" values="0 0 0 0 0 0 0 0 0 0 0 0 0 0 0 0 0 0 127 0" result="hardAlpha"/>
<feOffset dy="4"/>
<feGaussianBlur stdDeviation="2"/>
<feComposite in2="hardAlpha" operator="out"/>
<feColorMatrix type="matrix" values="0 0 0 0 0 0 0 0 0 0 0 0 0 0 0 0 0 0 0.25 0"/>
<feBlend mode="normal" in2="BackgroundImageFix" result="effect1_dropShadow_203_27"/>
<feBlend mode="normal" in="SourceGraphic" in2="effect1_dropShadow_203_27" result="shape"/>
</filter>
<linearGradient id="paint0_linear_203_27" x1="41" y1="35" x2="41" y2="105" gradientUnits="userSpaceOnUse">
<stop stop-color="#DBF8EF"/>
<stop offset="1" stop-color="#B4EEDB"/>
</linearGradient>
<linearGradient id="paint1_linear_203_27" x1="80.003" y1="35" x2="80.003" y2="52.995" gradientUnits="userSpaceOnUse">
<stop stop-color="#B4EEDB"/>
<stop offset="1" stop-color="#97E9CF"/>
</linearGradient>
<linearGradient id="paint2_linear_203_27" x1="1" y1="55" x2="1" y2="125" gradientUnits="userSpaceOnUse">
<stop stop-color="#DBF8EF"/>
<stop offset="1" stop-color="#B4EEDB"/>
</linearGradient>
<linearGradient id="paint3_linear_203_27" x1="40.003" y1="55" x2="40.003" y2="72.995" gradientUnits="userSpaceOnUse">
<stop stop-color="#B4EEDB"/>
<stop offset="1" stop-color="#97E9CF"/>
</linearGradient>
</defs>
</svg>
