<svg width="100" height="101" viewBox="0 0 100 101" fill="none" xmlns="http://www.w3.org/2000/svg">
<path fill-rule="evenodd" clip-rule="evenodd" d="M41 9C41 7.93913 41.4214 6.92172 42.1716 6.17157C42.9217 5.42143 43.9391 5 45 5H80L98 23V71C98 72.0609 97.5786 73.0783 96.8284 73.8284C96.0783 74.5786 95.0609 75 94 75H45C43.9391 75 42.9217 74.5786 42.1716 73.8284C41.4214 73.0783 41 72.0609 41 71V9Z" fill="url(#paint0_linear_103_2)"/>
<path fill-rule="evenodd" clip-rule="evenodd" d="M80 5V19C80 20.0609 80.4214 21.0783 81.1716 21.8284C81.9217 22.5786 82.9391 23 84 23H98L80 5Z" fill="url(#paint1_linear_103_2)"/>
<path fill-rule="evenodd" clip-rule="evenodd" d="M1 29C1 27.9391 1.42143 26.9217 2.17157 26.1716C2.92172 25.4214 3.93913 25 5 25H40L58 43V91C58 92.0609 57.5786 93.0783 56.8284 93.8284C56.0783 94.5786 55.0609 95 54 95H5C3.93913 95 2.92172 94.5786 2.17157 93.8284C1.42143 93.0783 1 92.0609 1 91V29Z" fill="url(#paint2_linear_103_2)"/>
<path fill-rule="evenodd" clip-rule="evenodd" d="M40 25V39C40 40.0609 40.4214 41.0783 41.1716 41.8284C41.9217 42.5786 42.9391 43 44 43H58L40 25Z" fill="url(#paint3_linear_103_2)"/>
<path d="M39.4883 83.903C42.2242 83.903 43.8712 81.9477 43.8712 78.7055V77.126C43.8712 73.886 42.2355 71.9397 39.531 71.9397C37.8615 71.9397 36.543 72.7205 36.1582 73.94H36.0165V67.9617H33.114V83.75H35.9715V81.9702H36.1155C36.588 83.1672 37.8615 83.9052 39.4883 83.9052V83.903ZM38.5208 81.5967C37.0358 81.5967 36.0165 80.4312 36.0165 78.7167V77.27C36.0165 75.4137 36.9615 74.2482 38.487 74.2482C40.026 74.2482 40.9058 75.4137 40.9058 77.4342V78.4467C40.9058 80.4447 40.0373 81.599 38.5208 81.599V81.5967ZM25.959 83.9255C27.6848 83.9255 28.6612 83.1245 29.1225 82.2672H29.2552V83.75H31.9913V75.9177C31.9913 72.9612 29.8605 71.906 27.2438 71.906C24.0488 71.906 22.6875 73.445 22.5525 75.3575H25.2885C25.4325 74.6307 25.9928 74.1155 27.1785 74.1155C28.3643 74.1155 29.1225 74.6757 29.1225 75.8502V76.8942H26.2785C23.5762 76.8942 22.125 78.278 22.125 80.366C22.125 82.5642 23.6842 83.9255 25.959 83.9255V83.9255ZM26.904 81.7947C25.914 81.7947 25.0028 81.266 25.0028 80.1792C25.0028 79.2905 25.608 78.6402 26.8927 78.6402H29.1225V79.8507C29.1225 80.9825 28.1235 81.7947 26.904 81.7947V81.7947ZM46.9222 83.0705C45.624 82.1705 44.8973 80.6225 44.8973 78.6087V77.1462C44.8973 73.9512 46.9087 71.8857 50.0835 71.8857C53.1255 71.8857 54.8512 73.7307 54.8962 75.9492H52.2255C52.1355 75.1595 51.5888 74.2032 50.16 74.2032C48.6435 74.2032 47.8087 75.3665 47.8087 77.1912V78.5975C47.8087 79.6505 48.081 80.474 48.5805 80.9982L46.9222 83.0682V83.0705Z" fill="#08C988"/>
<path d="M53.5552 80.1815C53.7285 80.3199 53.8728 80.4912 53.9799 80.6855C54.0869 80.8798 54.1546 81.0933 54.179 81.3138C54.2035 81.5342 54.1842 81.7574 54.1223 81.9704C54.0605 82.1834 53.9572 82.3821 53.8185 82.5552L44.8185 93.8052C44.6701 93.9904 44.4843 94.1423 44.2733 94.2508C44.0622 94.3593 43.8306 94.4221 43.5937 94.4351C43.3567 94.448 43.1197 94.4108 42.898 94.3259C42.6764 94.2411 42.4752 94.1104 42.3075 93.9425L36.6825 88.3175C36.5167 88.163 36.3837 87.9767 36.2915 87.7697C36.1993 87.5627 36.1497 87.3392 36.1457 87.1127C36.1417 86.8861 36.1833 86.661 36.2682 86.4509C36.3531 86.2408 36.4794 86.0499 36.6397 85.8896C36.7999 85.7294 36.9908 85.6031 37.2009 85.5182C37.411 85.4333 37.6361 85.3916 37.8627 85.3956C38.0893 85.3996 38.3127 85.4492 38.5197 85.5415C38.7267 85.6337 38.913 85.7667 39.0675 85.9325L43.3605 90.2232L51.1815 80.4447C51.32 80.2714 51.4913 80.1271 51.6855 80.0201C51.8798 79.9131 52.0933 79.8454 52.3138 79.821C52.5343 79.7965 52.7574 79.8158 52.9704 79.8776C53.1834 79.9395 53.3822 80.0427 53.5552 80.1815V80.1815Z" fill="#08C988"/>
<path d="M82.4883 63.903C85.2242 63.903 86.8712 61.9477 86.8712 58.7055V57.126C86.8712 53.886 85.2355 51.9397 82.531 51.9397C80.8615 51.9397 79.543 52.7205 79.1582 53.94H79.0165V47.9617H76.114V63.75H78.9715V61.9702H79.1155C79.588 63.1672 80.8615 63.9052 82.4883 63.9052V63.903ZM81.5208 61.5967C80.0358 61.5967 79.0165 60.4312 79.0165 58.7167V57.27C79.0165 55.4137 79.9615 54.2482 81.487 54.2482C83.026 54.2482 83.9058 55.4137 83.9058 57.4342V58.4467C83.9058 60.4447 83.0373 61.599 81.5208 61.599V61.5967ZM68.959 63.9255C70.6848 63.9255 71.6612 63.1245 72.1225 62.2672H72.2552V63.75H74.9913V55.9177C74.9913 52.9612 72.8605 51.906 70.2438 51.906C67.0488 51.906 65.6875 53.445 65.5525 55.3575H68.2885C68.4325 54.6307 68.9928 54.1155 70.1785 54.1155C71.3643 54.1155 72.1225 54.6757 72.1225 55.8502V56.8942H69.2785C66.5762 56.8942 65.125 58.278 65.125 60.366C65.125 62.5642 66.6842 63.9255 68.959 63.9255V63.9255ZM69.904 61.7947C68.914 61.7947 68.0028 61.266 68.0028 60.1792C68.0028 59.2905 68.608 58.6402 69.8927 58.6402H72.1225V59.8507C72.1225 60.9825 71.1235 61.7947 69.904 61.7947V61.7947ZM89.9222 63.0705C88.624 62.1705 87.8973 60.6225 87.8973 58.6087V57.1462C87.8973 53.9512 89.9087 51.8857 93.0835 51.8857C96.1255 51.8857 97.8512 53.7307 97.8962 55.9492H95.2255C95.1355 55.1595 94.5888 54.2032 93.16 54.2032C91.6435 54.2032 90.8087 55.3665 90.8087 57.1912V58.5975C90.8087 59.6505 91.081 60.474 91.5805 60.9982L89.9222 63.0682V63.0705Z" fill="#08C988"/>
<path d="M96.5553 60.1815C96.7285 60.3199 96.8728 60.4912 96.9799 60.6855C97.0869 60.8798 97.1546 61.0933 97.179 61.3138C97.2035 61.5342 97.1842 61.7574 97.1224 61.9704C97.0605 62.1834 96.9572 62.3821 96.8185 62.5552L87.8185 73.8052C87.6701 73.9904 87.4843 74.1423 87.2733 74.2508C87.0622 74.3593 86.8306 74.4221 86.5937 74.4351C86.3567 74.448 86.1197 74.4108 85.8981 74.3259C85.6764 74.2411 85.4752 74.1104 85.3075 73.9425L79.6825 68.3175C79.5167 68.163 79.3837 67.9767 79.2915 67.7697C79.1993 67.5627 79.1497 67.3392 79.1457 67.1127C79.1417 66.8861 79.1834 66.661 79.2682 66.4509C79.3531 66.2408 79.4794 66.0499 79.6397 65.8896C79.7999 65.7294 79.9908 65.6031 80.2009 65.5182C80.411 65.4333 80.6361 65.3916 80.8627 65.3956C81.0893 65.3996 81.3127 65.4492 81.5197 65.5415C81.7267 65.6337 81.913 65.7667 82.0675 65.9325L86.3605 70.2232L94.1815 60.4447C94.32 60.2714 94.4913 60.1271 94.6856 60.0201C94.8798 59.9131 95.0933 59.8454 95.3138 59.821C95.5343 59.7965 95.7574 59.8158 95.9704 59.8776C96.1834 59.9395 96.3822 60.0427 96.5553 60.1815V60.1815Z" fill="#08C988"/>
<defs>
<linearGradient id="paint0_linear_103_2" x1="41" y1="5" x2="41" y2="75" gradientUnits="userSpaceOnUse">
<stop stop-color="#DBF8EF"/>
<stop offset="1" stop-color="#B4EEDB"/>
</linearGradient>
<linearGradient id="paint1_linear_103_2" x1="80.003" y1="5" x2="80.003" y2="22.995" gradientUnits="userSpaceOnUse">
<stop stop-color="#B4EEDB"/>
<stop offset="1" stop-color="#97E9CF"/>
</linearGradient>
<linearGradient id="paint2_linear_103_2" x1="1" y1="25" x2="1" y2="95" gradientUnits="userSpaceOnUse">
<stop stop-color="#DBF8EF"/>
<stop offset="1" stop-color="#B4EEDB"/>
</linearGradient>
<linearGradient id="paint3_linear_103_2" x1="40.003" y1="25" x2="40.003" y2="42.995" gradientUnits="userSpaceOnUse">
<stop stop-color="#B4EEDB"/>
<stop offset="1" stop-color="#97E9CF"/>
</linearGradient>
</defs>
</svg>
