<svg width="100" height="101" viewBox="0 0 100 101" fill="none" xmlns="http://www.w3.org/2000/svg">
<path fill-rule="evenodd" clip-rule="evenodd" d="M41 9C41 7.93913 41.4214 6.92172 42.1716 6.17157C42.9217 5.42143 43.9391 5 45 5H80L98 23V71C98 72.0609 97.5786 73.0783 96.8284 73.8284C96.0783 74.5786 95.0609 75 94 75H45C43.9391 75 42.9217 74.5786 42.1716 73.8284C41.4214 73.0783 41 72.0609 41 71V9Z" fill="url(#paint0_linear_5_20)"/>
<path fill-rule="evenodd" clip-rule="evenodd" d="M80 5V19C80 20.0609 80.4214 21.0783 81.1716 21.8284C81.9217 22.5786 82.9391 23 84 23H98L80 5Z" fill="url(#paint1_linear_5_20)"/>
<path fill-rule="evenodd" clip-rule="evenodd" d="M67.137 49.815L65.945 46.211H60.76L59.549 49.815H57L62 35.723H64.832L69.842 49.815H67.137ZM63.279 38.408L61.346 44.218H65.359L63.445 38.408H63.279ZM77.824 49.99C76.33 49.99 75.09 49.297 74.484 48.125H74.318V49.815H71.984V35H74.406V40.83H74.572C75.129 39.668 76.359 38.955 77.824 38.955C80.529 38.955 82.209 41.055 82.209 44.473C82.209 47.871 80.519 49.99 77.824 49.99ZM77.063 41.016C75.413 41.016 74.367 42.344 74.367 44.473C74.367 46.602 75.402 47.93 77.062 47.93C78.722 47.93 79.719 46.621 79.719 44.473C79.719 42.324 78.713 41.016 77.063 41.016Z" fill="#08C988"/>
<path fill-rule="evenodd" clip-rule="evenodd" d="M1 29C1 27.9391 1.42143 26.9217 2.17157 26.1716C2.92172 25.4214 3.93913 25 5 25H40L58 43V91C58 92.0609 57.5786 93.0783 56.8284 93.8284C56.0783 94.5786 55.0609 95 54 95H5C3.93913 95 2.92172 94.5786 2.17157 93.8284C1.42143 93.0783 1 92.0609 1 91V29Z" fill="url(#paint2_linear_5_20)"/>
<path fill-rule="evenodd" clip-rule="evenodd" d="M40 25V39C40 40.0609 40.4214 41.0783 41.1716 41.8284C41.9217 42.5786 42.9391 43 44 43H58L40 25Z" fill="url(#paint3_linear_5_20)"/>
<path fill-rule="evenodd" clip-rule="evenodd" d="M27.137 69.814L25.945 66.211H20.76L19.549 69.814H17L22 55.723H24.832L29.842 69.814H27.137ZM23.279 58.408L21.346 64.218H25.359L23.445 58.408H23.279ZM37.824 69.99C36.33 69.99 35.09 69.297 34.484 68.125H34.318V69.815H31.984V55H34.406V60.83H34.572C35.129 59.668 36.359 58.955 37.824 58.955C40.529 58.955 42.209 61.055 42.209 64.473C42.209 67.871 40.519 69.99 37.824 69.99ZM37.063 61.016C35.413 61.016 34.367 62.344 34.367 64.473C34.367 66.602 35.402 67.93 37.063 67.93C38.723 67.93 39.719 66.621 39.719 64.473C39.719 62.324 38.713 61.016 37.062 61.016H37.063Z" fill="#08C988"/>
<defs>
<linearGradient id="paint0_linear_5_20" x1="41" y1="5" x2="41" y2="75" gradientUnits="userSpaceOnUse">
<stop stop-color="#DBF8EF"/>
<stop offset="1" stop-color="#B4EEDB"/>
</linearGradient>
<linearGradient id="paint1_linear_5_20" x1="80.003" y1="5" x2="80.003" y2="22.995" gradientUnits="userSpaceOnUse">
<stop stop-color="#B4EEDB"/>
<stop offset="1" stop-color="#97E9CF"/>
</linearGradient>
<linearGradient id="paint2_linear_5_20" x1="1" y1="25" x2="1" y2="95" gradientUnits="userSpaceOnUse">
<stop stop-color="#DBF8EF"/>
<stop offset="1" stop-color="#B4EEDB"/>
</linearGradient>
<linearGradient id="paint3_linear_5_20" x1="40.003" y1="25" x2="40.003" y2="42.995" gradientUnits="userSpaceOnUse">
<stop stop-color="#B4EEDB"/>
<stop offset="1" stop-color="#97E9CF"/>
</linearGradient>
</defs>
</svg>
