<svg width="119" height="127" viewBox="0 0 119 127" fill="none" xmlns="http://www.w3.org/2000/svg">
<g clip-path="url(#clip0_806_13)">
<path d="M64.4411 70.2906L63.2113 69.0609L29.2985 102.974L30.5282 104.203L64.4411 70.2906Z" fill="#008CD2"/>
<path fill-rule="evenodd" clip-rule="evenodd" d="M33.6087 64.3913C28.9336 64.3913 25.1304 68.1944 25.1304 72.8696C25.1304 77.5447 28.9336 81.3478 33.6087 81.3478C34.2711 81.3478 34.9113 81.265 35.5296 81.1188L34.6243 78.8612C34.2821 79.5483 33.9177 79.9348 33.6087 79.9348C33.5562 79.9348 33.501 79.9155 33.4459 79.8934C33.4266 79.885 33.4073 79.8796 33.3852 79.8685C33.3659 79.8603 33.3492 79.8436 33.3327 79.8355C33.2471 79.7774 33.1534 79.6974 33.0457 79.5704C32.9795 79.496 32.916 79.4076 32.8497 79.3083C32.7946 79.2256 32.7393 79.1316 32.6842 79.0323C32.6676 79.0019 32.651 78.9689 32.6344 78.9384C32.5268 78.7315 32.4219 78.4913 32.3226 78.232C32.284 78.1325 32.2482 78.025 32.2122 77.9146C32.1405 77.7021 32.0715 77.4758 32.008 77.2329C31.9969 77.1915 31.9859 77.1529 31.9748 77.1087H33.9233L33.3576 75.6956H31.6934C31.6409 75.3452 31.6023 74.9781 31.5692 74.6028C31.5553 74.4233 31.5443 74.2412 31.5332 74.0591C31.5111 73.6671 31.489 73.2781 31.489 72.8696C31.489 72.4915 31.5111 72.1299 31.5306 71.7656C31.5443 71.5256 31.5581 71.2882 31.5774 71.0591C31.5995 70.8301 31.6271 70.6064 31.6548 70.3857C31.6713 70.2697 31.6878 70.1567 31.7043 70.0435H35.513C35.6123 70.6976 35.6896 71.393 35.7144 72.1631H32.1956L32.2012 72.1741L33.319 72.508L37.1247 73.6506C37.1247 73.6257 37.1275 73.6009 37.1303 73.576H40.6381C40.6021 73.9431 40.536 74.2991 40.4449 74.6469L41.7916 75.0525C41.9793 74.3544 42.087 73.6257 42.087 72.8696C42.087 68.1944 38.2838 64.3913 33.6087 64.3913ZM33.6087 65.8043C34.1221 65.8043 34.7927 66.8586 35.2398 68.6304H31.9776C31.9859 68.6028 31.9887 68.5697 31.9969 68.5421C32.0383 68.3821 32.088 68.2386 32.1322 68.0868C32.1901 67.9045 32.2426 67.7141 32.3033 67.5541C32.4247 67.2229 32.56 66.9304 32.6951 66.6875C32.7586 66.577 32.8193 66.4777 32.8802 66.3894C32.9353 66.3094 32.9904 66.2322 33.0457 66.1687C33.1643 66.0278 33.2692 65.9396 33.3576 65.8871C33.3713 65.8788 33.3852 65.8706 33.399 65.865C33.4294 65.8485 33.4569 65.8374 33.4817 65.8264C33.5259 65.8153 33.5673 65.8043 33.6087 65.8043ZM31.3649 66.1769C31.2767 66.3452 31.1965 66.5219 31.1165 66.704C31.0917 66.7647 31.067 66.8282 31.0449 66.8916C31.0116 66.9718 30.9786 67.049 30.9482 67.1346C30.9344 67.1676 30.9261 67.2064 30.9151 67.2395C30.8019 67.5569 30.7026 67.8936 30.6143 68.244C30.5866 68.3489 30.5617 68.4537 30.5398 68.5614C30.5343 68.5835 30.5259 68.6083 30.5203 68.6304H27.9675C28.8203 67.5043 29.9988 66.6377 31.3649 66.1769ZM35.8551 66.1769C37.2214 66.6377 38.3998 67.5043 39.2499 68.6304H36.697C36.4873 67.7003 36.2085 66.8586 35.8551 66.1769ZM27.1396 70.0435H30.2692C30.239 70.2725 30.2169 70.5071 30.192 70.7417C30.1562 71.0922 30.1313 71.4456 30.112 71.8125C30.1064 71.9311 30.0927 72.0443 30.0871 72.1631H26.5793C26.6539 71.4151 26.8497 70.7031 27.1396 70.0435ZM36.9482 70.0435H40.0777C40.3676 70.7031 40.5635 71.4151 40.6381 72.1631H37.1303C37.1054 71.4428 37.0419 70.7306 36.9482 70.0435ZM26.5793 73.576H30.0871C30.0955 73.772 30.112 73.9652 30.123 74.1612C30.1313 74.313 30.1369 74.4675 30.1506 74.6165C30.1783 74.9809 30.2169 75.3424 30.2664 75.6956H27.1396C26.8497 75.036 26.6539 74.324 26.5793 73.576ZM34.3151 74.2826L37.1412 81.3478L38.4689 79.449L43.1739 83.3043L44.913 81.1188L39.7603 77.829L41.3805 76.4021L34.3151 74.2826ZM27.9703 77.1087H30.5177C30.5287 77.1529 30.5398 77.1943 30.5508 77.2384C30.5729 77.3377 30.5977 77.4316 30.6226 77.5282C30.7108 77.876 30.813 78.2127 30.9233 78.5245C30.9316 78.5522 30.9372 78.5824 30.9482 78.6073C30.984 78.7094 31.0254 78.8061 31.067 78.9054C31.0863 78.9549 31.1083 79.0103 31.1276 79.0598C31.1965 79.2172 31.2656 79.3663 31.3374 79.5097C31.3456 79.5263 31.3539 79.5456 31.3623 79.5623C29.996 79.104 28.8203 78.2374 27.9703 77.1087Z" fill="#008CD2"/>
<path d="M7.73913 48.7391V125.261H84.2609V48.7391H7.73913ZM6 47H86V127H6V47Z" fill="#008CD2"/>
<path d="M55.4296 100.082L54.48 104.391H52.313L56.4278 87.3478H59.2278L63.2696 104.391H61.1026L60.1774 100.082H55.4296ZM59.7878 98.2557L57.7913 88.9548L55.8191 98.2557H59.7878Z" fill="#008CD2"/>
<path d="M59.0574 108.788C59.0574 108.6 59.0365 108.517 58.9531 108.517L58.4731 108.746C58.4731 108.642 58.4104 108.579 58.3061 108.537L58.1391 108.517C57.9931 108.517 57.9304 108.537 57.7217 108.663C57.6591 108.537 57.5757 108.391 57.5131 108.266C56.9704 107.223 56.407 105.657 56.1565 104.969C56.0313 104.614 55.9061 103.883 55.76 102.777C55.927 102.882 56.0522 102.923 56.1148 102.923C56.1983 102.923 56.3026 102.777 56.3861 102.485C56.4278 102.548 56.5113 102.569 56.6157 102.569C56.6783 102.569 56.7617 102.548 56.8035 102.485L57.1374 101.984L57.5131 102.11H57.5339C57.5757 102.11 57.6383 102.047 57.7426 101.984C57.847 101.922 57.9304 101.88 57.9931 101.88L58.0557 101.901C58.3896 102.068 58.6191 102.36 58.7235 102.819C58.9739 103.883 59.2035 104.405 59.4748 104.405C59.7044 104.405 60.0174 104.134 60.3513 103.612C60.6852 103.09 61.0191 102.381 61.3948 101.525C61.4157 101.692 61.4365 101.776 61.4783 101.776C61.6035 101.776 61.9165 101.045 62.6887 99.8139C63.8365 97.9565 66.6748 94.3878 67.4052 93.887C67.9478 93.5113 68.3652 93.1565 68.6574 92.8435C68.6157 93.0522 68.5739 93.1983 68.5739 93.2609C68.5739 93.3235 68.6157 93.3443 68.6574 93.3443L69.2417 93.0522V93.1357C69.2417 93.24 69.2626 93.3026 69.3252 93.3026C69.4087 93.3026 69.7426 92.9687 69.7844 92.8435L69.7426 93.1357L70.4522 92.7183L70.2852 93.0939C70.4939 92.9478 70.6609 92.8643 70.7652 92.8643C70.8696 92.8643 70.9322 93.0313 70.9322 93.1357C70.9322 93.3026 70.7861 93.5322 70.5565 93.8243C70.3061 94.1583 69.68 94.8052 67.8017 96.9548C66.9878 97.873 63.3774 102.777 62.6887 103.946L61.3948 106.137C60.8313 107.077 60.4765 107.682 60.2887 107.911C60.1009 108.141 59.8713 108.37 59.6 108.579L59.4122 108.475L59.2452 108.579L59.0574 108.788Z" fill="#25BC17"/>
<path d="M11.2174 52.2174V121.783H80.7826V52.2174H11.2174ZM9.47827 50.4783H82.5218V123.522H9.47827V50.4783Z" fill="#008CD2"/>
</g>
<g filter="url(#filter0_d_806_13)">
<path d="M47.3113 54.8126C25.1632 54.8126 13.5755 61.3903 9.97802 63.884C8.6002 64.8392 6.81284 64.7856 5.53818 63.6658C4.71599 62.9433 4.21544 61.9447 4.23483 60.8475C4.92593 21.3292 27.8462 0 65.2356 0C91.2463 0 111.817 14.2173 111.817 29.6844C111.817 31.6926 111.817 23.151 99.0112 23.151C90.4609 23.151 89.8791 43.0241 89.8396 61.0483C89.8375 61.9482 89.4856 62.776 88.8956 63.4358C87.6072 64.8759 85.5631 65.0275 84.033 63.9228C80.4635 61.346 69.2501 54.8126 47.3113 54.8126V54.8126Z" fill="#FF473E"/>
</g>
<path d="M87.6696 67.83C86.4934 67.83 85.3038 67.4636 84.2419 66.6971C81.3581 64.6152 70.1744 57.8225 47.3413 57.8225C24.3018 57.8225 12.683 64.6357 9.67089 66.724C6.69678 68.7857 2.79266 67.7588 0.950224 64.4303C-0.891952 61.1018 0.0256451 56.7322 2.99976 54.6705C7.78192 51.3553 21.6762 43.6442 47.3413 43.6442C58.3294 43.6442 68.257 45.0658 76.8479 47.8694C83.9151 50.1759 88.5042 52.902 91.1091 54.7825C94.0491 56.9049 94.895 61.2928 92.9986 64.5828C91.7875 66.6844 89.7499 67.83 87.6696 67.83V67.83Z" fill="#F4F3EF"/>
<path d="M119 31.5473C119 36.8611 115.151 41.169 110.403 41.169C105.654 41.169 101.805 36.8614 101.805 31.5473C101.805 26.2332 105.654 21.9255 110.403 21.9255C115.151 21.9255 119 26.2332 119 31.5473V31.5473Z" fill="#DEE2E2"/>
<defs>
<filter id="filter0_d_806_13" x="0.234283" y="0" width="115.583" height="72.6486" filterUnits="userSpaceOnUse" color-interpolation-filters="sRGB">
<feFlood flood-opacity="0" result="BackgroundImageFix"/>
<feColorMatrix in="SourceAlpha" type="matrix" values="0 0 0 0 0 0 0 0 0 0 0 0 0 0 0 0 0 0 127 0" result="hardAlpha"/>
<feOffset dy="4"/>
<feGaussianBlur stdDeviation="2"/>
<feComposite in2="hardAlpha" operator="out"/>
<feColorMatrix type="matrix" values="0 0 0 0 0 0 0 0 0 0 0 0 0 0 0 0 0 0 0.25 0"/>
<feBlend mode="normal" in2="BackgroundImageFix" result="effect1_dropShadow_806_13"/>
<feBlend mode="normal" in="SourceGraphic" in2="effect1_dropShadow_806_13" result="shape"/>
</filter>
<clipPath id="clip0_806_13">
<rect width="80" height="80" fill="white" transform="translate(6 47)"/>
</clipPath>
</defs>
</svg>
