<svg width="46" height="46" viewBox="0 0 46 46" fill="none" xmlns="http://www.w3.org/2000/svg">
<path d="M33.6036 13.3921L32.8965 12.685L13.3966 32.1849L14.1037 32.892L33.6036 13.3921Z" fill="#008CD2"/>
<path fill-rule="evenodd" clip-rule="evenodd" d="M15.875 10C13.1868 10 11 12.1868 11 14.875C11 17.5632 13.1868 19.75 15.875 19.75C16.2559 19.75 16.624 19.7024 16.9795 19.6183L16.459 18.3202C16.2622 18.7153 16.0527 18.9375 15.875 18.9375C15.8448 18.9375 15.8131 18.9264 15.7814 18.9137C15.7703 18.9089 15.7592 18.9058 15.7465 18.8994C15.7354 18.8947 15.7258 18.8851 15.7163 18.8804C15.6671 18.847 15.6132 18.801 15.5513 18.728C15.5132 18.6852 15.4767 18.6344 15.4386 18.5773C15.4069 18.5297 15.3751 18.4757 15.3434 18.4186C15.3339 18.4011 15.3243 18.3821 15.3148 18.3646C15.2529 18.2456 15.1926 18.1075 15.1355 17.9584C15.1133 17.9012 15.0927 17.8394 15.072 17.7759C15.0308 17.6537 14.9911 17.5236 14.9546 17.3839C14.9482 17.3601 14.9419 17.3379 14.9355 17.3125H16.0559L15.7306 16.5H14.7737C14.7435 16.2985 14.7213 16.0874 14.7023 15.8716C14.6943 15.7684 14.688 15.6637 14.6816 15.559C14.6689 15.3336 14.6562 15.1099 14.6562 14.875C14.6562 14.6576 14.6689 14.4497 14.6801 14.2402C14.688 14.1022 14.6959 13.9657 14.707 13.834C14.7197 13.7023 14.7356 13.5737 14.7515 13.4468C14.761 13.3801 14.7705 13.3151 14.78 13.25H16.97C17.0271 13.6261 17.0715 14.026 17.0858 14.4688H15.0625L15.0657 14.4751L15.7084 14.6671L17.8967 15.3241C17.8967 15.3098 17.8983 15.2955 17.8999 15.2812H19.9169C19.8962 15.4923 19.8582 15.697 19.8058 15.897L20.5802 16.1302C20.6881 15.7288 20.75 15.3098 20.75 14.875C20.75 12.1868 18.5632 10 15.875 10ZM15.875 10.8125C16.1702 10.8125 16.5558 11.4187 16.8129 12.4375H14.9371C14.9419 12.4216 14.9435 12.4026 14.9482 12.3867C14.972 12.2947 15.0006 12.2122 15.026 12.1249C15.0593 12.0201 15.0895 11.9106 15.1244 11.8186C15.1942 11.6282 15.272 11.46 15.3497 11.3203C15.3862 11.2568 15.4211 11.1997 15.4561 11.1489C15.4878 11.1029 15.5195 11.0585 15.5513 11.022C15.6195 10.941 15.6798 10.8903 15.7306 10.8601C15.7385 10.8553 15.7465 10.8506 15.7544 10.8474C15.7719 10.8379 15.7877 10.8315 15.802 10.8252C15.8274 10.8188 15.8512 10.8125 15.875 10.8125ZM14.5848 11.0267C14.5341 11.1235 14.488 11.2251 14.442 11.3298C14.4277 11.3647 14.4135 11.4012 14.4008 11.4377C14.3817 11.4838 14.3627 11.5282 14.3452 11.5774C14.3373 11.5964 14.3325 11.6187 14.3262 11.6377C14.2611 11.8202 14.204 12.0138 14.1532 12.2153C14.1373 12.2756 14.123 12.3359 14.1104 12.3978C14.1072 12.4105 14.1024 12.4248 14.0992 12.4375H12.6313C13.1217 11.79 13.7993 11.2917 14.5848 11.0267ZM17.1667 11.0267C17.9523 11.2917 18.6299 11.79 19.1187 12.4375H17.6508C17.5302 11.9027 17.3699 11.4187 17.1667 11.0267ZM12.1553 13.25H13.9548C13.9374 13.3817 13.9247 13.5166 13.9104 13.6515C13.8898 13.853 13.8755 14.0562 13.8644 14.2672C13.8612 14.3354 13.8533 14.4005 13.8501 14.4688H11.8331C11.876 14.0387 11.9886 13.6293 12.1553 13.25ZM17.7952 13.25H19.5947C19.7614 13.6293 19.874 14.0387 19.9169 14.4688H17.8999C17.8856 14.0546 17.8491 13.6451 17.7952 13.25ZM11.8331 15.2812H13.8501C13.8549 15.3939 13.8644 15.505 13.8707 15.6177C13.8755 15.705 13.8787 15.7938 13.8866 15.8795C13.9025 16.089 13.9247 16.2969 13.9532 16.5H12.1553C11.9886 16.1207 11.876 15.7113 11.8331 15.2812ZM16.2812 15.6875L17.9062 19.75L18.6696 18.6582L21.375 20.875L22.375 19.6183L19.4122 17.7267L20.3438 16.9062L16.2812 15.6875ZM12.6329 17.3125H14.0977C14.104 17.3379 14.1104 17.3617 14.1167 17.3871C14.1294 17.4442 14.1437 17.4982 14.158 17.5537C14.2087 17.7537 14.2675 17.9473 14.3309 18.1266C14.3357 18.1425 14.3389 18.1599 14.3452 18.1742C14.3658 18.2329 14.3896 18.2885 14.4135 18.3456C14.4246 18.3741 14.4373 18.4059 14.4484 18.4344C14.488 18.5249 14.5277 18.6106 14.569 18.6931C14.5737 18.7026 14.5785 18.7137 14.5833 18.7233C13.7977 18.4598 13.1217 17.9615 12.6329 17.3125Z" fill="#008CD2"/>
<path d="M3 3V43H43V3H3ZM2 2H44V44H2V2Z" fill="#008CD2"/>
<path d="M1 1V45H45V1H1ZM0 0H46V46H0V0Z" fill="#008CD2"/>
<path d="M28.422 30.522L27.876 33H26.63L28.996 23.2H30.606L32.93 33H31.684L31.152 30.522H28.422ZM30.928 29.472L29.78 24.124L28.646 29.472H30.928Z" fill="#008CD2"/>
<path d="M30.672 34.352C30.672 34.28 30.664 34.248 30.632 34.248L30.448 34.336C30.448 34.296 30.424 34.272 30.384 34.256L30.32 34.248C30.264 34.248 30.24 34.256 30.16 34.304C30.136 34.256 30.104 34.2 30.08 34.152C29.872 33.752 29.656 33.152 29.56 32.888C29.512 32.752 29.464 32.472 29.408 32.048C29.472 32.088 29.52 32.104 29.544 32.104C29.576 32.104 29.616 32.048 29.648 31.936C29.664 31.96 29.696 31.968 29.736 31.968C29.76 31.968 29.792 31.96 29.808 31.936L29.936 31.744L30.08 31.792H30.088C30.104 31.792 30.128 31.768 30.168 31.744C30.208 31.72 30.24 31.704 30.264 31.704L30.288 31.712C30.416 31.776 30.504 31.888 30.544 32.064C30.64 32.472 30.728 32.672 30.832 32.672C30.92 32.672 31.04 32.568 31.168 32.368C31.296 32.168 31.424 31.896 31.568 31.568C31.576 31.632 31.584 31.664 31.6 31.664C31.648 31.664 31.768 31.384 32.064 30.912C32.504 30.2 33.592 28.832 33.872 28.64C34.08 28.496 34.24 28.36 34.352 28.24C34.336 28.32 34.32 28.376 34.32 28.4C34.32 28.424 34.336 28.432 34.352 28.432L34.576 28.32V28.352C34.576 28.392 34.584 28.416 34.608 28.416C34.64 28.416 34.768 28.288 34.784 28.24L34.768 28.352L35.04 28.192L34.976 28.336C35.056 28.28 35.12 28.248 35.16 28.248C35.2 28.248 35.224 28.312 35.224 28.352C35.224 28.416 35.168 28.504 35.08 28.616C34.984 28.744 34.744 28.992 34.024 29.816C33.712 30.168 32.328 32.048 32.064 32.496L31.568 33.336C31.352 33.696 31.216 33.928 31.144 34.016C31.072 34.104 30.984 34.192 30.88 34.272L30.808 34.232L30.744 34.272L30.672 34.352Z" fill="#21F20F"/>
</svg>
