<svg width="100" height="100" viewBox="0 0 100 100" fill="none" xmlns="http://www.w3.org/2000/svg">
<g opacity="0.04">
<rect width="100" height="100" fill="white" fill-opacity="0.1"/>
<path d="M19.0958 72.1708C14.8042 67.6125 12.5 62.5 12.5 54.2125C12.5 39.6292 22.7375 26.5583 37.625 20.0958L41.3458 25.8375C27.45 33.3542 24.7333 43.1083 23.65 49.2583C25.8875 48.1 28.8167 47.6958 31.6875 47.9625C39.2042 48.6583 45.1292 54.8292 45.1292 62.5C45.1292 66.3678 43.5927 70.0771 40.8578 72.812C38.1229 75.5469 34.4136 77.0834 30.5458 77.0834C28.4069 77.0647 26.2931 76.6207 24.3273 75.7773C22.3616 74.934 20.5833 73.708 19.0958 72.1708V72.1708ZM60.7625 72.1708C56.4708 67.6125 54.1667 62.5 54.1667 54.2125C54.1667 39.6292 64.4042 26.5583 79.2917 20.0958L83.0125 25.8375C69.1167 33.3542 66.4 43.1083 65.3167 49.2583C67.5542 48.1 70.4833 47.6958 73.3542 47.9625C80.8708 48.6583 86.7958 54.8292 86.7958 62.5C86.7958 66.3678 85.2594 70.0771 82.5245 72.812C79.7896 75.5469 76.0802 77.0834 72.2125 77.0834C70.0736 77.0647 67.9597 76.6207 65.994 75.7773C64.0283 74.934 62.25 73.708 60.7625 72.1708V72.1708Z" fill="black"/>
</g>
</svg>
